<svg width="565" height="565" viewBox="0 0 565 565" fill="none" xmlns="http://www.w3.org/2000/svg">
<g clip-path="url(#clip0_204_2)">
<path d="M282.667 0.583984C127.067 0.583984 0.919998 126.729 0.919998 282.331C0.919998 437.932 127.065 564.077 282.667 564.077C438.268 564.077 564.413 437.932 564.413 282.331C564.413 126.729 438.268 0.583984 282.667 0.583984ZM90.7467 335.557H72.8093V285.099H90.7467V335.557ZM90.7467 279.557H72.8093V229.099H90.7467V279.557ZM119.476 356.557H101.539V285.099H119.476V356.557ZM119.476 279.557H101.539V208.099H119.476V279.557ZM148.205 372.307H130.268V285.099H148.205V372.307ZM148.205 279.557H130.268V192.349H148.205V279.557ZM176.935 390.973H158.997V285.099H176.935V390.973ZM176.935 279.557H158.997V173.683H176.935V279.557ZM205.519 405.12H187.581V285.245H205.519V405.12ZM205.519 279.557H187.581V159.683H205.519V279.557ZM234.248 351.891H216.311V285.099H234.248V351.891ZM234.248 279.557H216.311V212.765H234.248V279.557ZM262.977 320.828H245.04V285.099H262.977V320.828ZM262.977 279.557H245.04V243.828H262.977V279.557ZM291.707 303.036H273.769V285.244H291.707V303.036ZM291.707 279.557H273.769V261.765H291.707V279.557ZM320.291 320.828H302.353V285.099H320.291V320.828ZM320.291 279.557H302.353V243.828H320.291V279.557ZM349.02 335.557H331.083V285.099H349.02V335.557ZM349.02 279.557H331.083V229.099H349.02V279.557ZM377.749 348.973H359.812V285.244H377.749V348.973ZM377.749 279.557H359.812V215.828H377.749V279.557ZM406.333 320.828H388.396V285.099H406.333V320.828ZM406.333 279.557H388.396V243.828H406.333V279.557ZM435.063 305.224H417.125V285.245H435.063V305.224ZM435.063 279.557H417.125V259.579H435.063V279.557ZM463.792 323.453H445.855V285.099H463.792V323.453ZM463.792 279.557H445.855V241.203H463.792V279.557ZM492.521 335.557H474.584V285.099H492.521V335.557ZM474.584 279.557V229.099H492.521V279.557H474.584Z" fill="#FF4365"/>
</g>
<defs>
<clipPath id="clip0_204_2">
<rect width="565" height="565" fill="white"/>
</clipPath>
</defs>
</svg>
