<svg width="718" height="498" viewBox="0 0 718 498" fill="none" xmlns="http://www.w3.org/2000/svg">
<path fill-rule="evenodd" clip-rule="evenodd" d="M0.317383 222.453V275.344C0.317383 296.5 32.0521 296.5 32.0521 275.344V222.453C32.0521 202.177 0.317383 201.297 0.317383 222.453Z" fill="#F77A7A"/>
<path fill-rule="evenodd" clip-rule="evenodd" d="M62.0266 222.453V275.344C62.0266 296.5 93.7613 296.5 93.7613 275.344V222.453C94.6415 202.177 62.0266 201.297 62.0266 222.453Z" fill="#F77A7A"/>
<path fill-rule="evenodd" clip-rule="evenodd" d="M124.613 200.4V298.249C124.613 319.405 156.348 319.405 156.348 298.249V200.4C156.348 179.244 124.613 179.244 124.613 200.4Z" fill="#F77A7A"/>
<path fill-rule="evenodd" clip-rule="evenodd" d="M187.213 173.96V324.707C187.213 345.863 218.948 345.863 218.948 324.707V173.96C218.948 152.804 187.213 152.804 187.213 173.96V173.96Z" fill="#F77A7A"/>
<path fill-rule="evenodd" clip-rule="evenodd" d="M248.92 127.24V371.427C248.92 392.583 280.655 392.583 280.655 371.427V127.24C280.655 106.084 248.92 106.084 248.92 127.24Z" fill="#F77A7A"/>
<path fill-rule="evenodd" clip-rule="evenodd" d="M311.507 16.16V481.613C311.507 502.769 343.241 502.769 343.241 481.613V16.16C343.241 -4.996 311.507 -4.996 311.507 16.16Z" fill="#F77A7A"/>
<path fill-rule="evenodd" clip-rule="evenodd" d="M374.094 55.84V441.96C374.094 463.116 405.828 463.116 405.828 441.96V55.84C405.828 34.684 374.094 34.684 374.094 55.84Z" fill="#AD2843"/>
<path fill-rule="evenodd" clip-rule="evenodd" d="M435.8 135.173V363.493C435.8 383.769 467.535 383.769 467.535 363.493V135.173C467.535 114.017 435.8 114.017 435.8 135.173Z" fill="#AD2843"/>
<path fill-rule="evenodd" clip-rule="evenodd" d="M498.387 182.773V315.003C498.387 336.159 530.121 336.159 530.121 315.003V182.773C530.121 162.497 498.387 162.497 498.387 182.773Z" fill="#AD2843"/>
<path fill-rule="evenodd" clip-rule="evenodd" d="M560.973 203.053V294.736C560.973 315.892 592.708 315.892 592.708 294.736V203.053C592.708 182.777 560.973 182.777 560.973 203.053V203.053Z" fill="#AD2843"/>
<path fill-rule="evenodd" clip-rule="evenodd" d="M622.693 222.453V275.344C622.693 296.5 654.428 296.5 654.428 275.344V222.453C654.428 202.177 622.693 202.177 622.693 222.453Z" fill="#AD2843"/>
<path fill-rule="evenodd" clip-rule="evenodd" d="M685.28 222.453V275.344C685.28 296.5 717.015 296.5 717.015 275.344V222.453C717.015 202.177 685.28 202.177 685.28 222.453Z" fill="#AD2843"/>
</svg>
